<svg width="28" height="28" viewBox="0 0 28 28" fill="none" xmlns="http://www.w3.org/2000/svg">
<g clip-path="url(#clip0_250_21)">
<path d="M16.7 16.7C14.5 19 14.3 21.8 14.1 28C19.9 28 23.9 28 25.9 26C27.9 23.9 27.9 19.8 27.9 14.2C21.8 14.4 19 14.5 16.7 16.7ZM0 14.2C0 19.8 0 24 2 26C4.1 28 8 28 13.8 28C13.6 21.8 13.4 19 11.2 16.7C9 14.5 6.2 14.3 0 14.2ZM13.9 0C8.1 0 4.1 0 2 2C0 4.1 0 8.3 0 13.9C6.2 13.7 9 13.5 11.3 11.3C13.5 9 13.7 6.2 13.9 0ZM16.7 11.3C14.5 9 14.3 6.2 14.1 0C19.9 0 23.9 0 25.9 2C27.9 4.1 27.9 8.2 27.9 13.8C21.8 13.7 19 13.5 16.7 11.3Z" fill="#22eaaa"/>
<path d="M28 14.2V13.9C21.8 13.7 19 13.5 16.7 11.3C14.5 9 14.3 6.2 14.2 0H13.9C13.7 6.2 13.5 9 11.3 11.3C9 13.5 6.2 13.7 0 13.9V14.2C6.2 14.4 9 14.6 11.3 16.8C13.5 19.1 13.7 21.9 13.9 28.1H14.2C14.4 21.9 14.6 19.1 16.8 16.8C19 14.5 21.8 14.3 28 14.2Z" fill="white"/>
</g>
<defs>
<clipPath id="clip0_250_21">
<rect width="28" height="28" fill="white"/>
</clipPath>
</defs>
</svg>
