<svg width="22" height="36" viewBox="0 0 22 36" fill="none" xmlns="http://www.w3.org/2000/svg">
<g clip-path="url(#clip0_0_554)">
<path d="M10.9381 3.89786e-05C5.86468 -0.0145065 1.74433 4.04368 1.715 9.09095C1.68567 14.08 5.80603 18.211 10.8208 18.2255C15.8943 18.24 20.0293 14.211 20.0586 9.23641C20.088 4.13095 16.0116 0.0145844 10.9381 3.89786e-05ZM10.9235 13.571C8.43074 13.5855 6.42188 11.6219 6.40722 9.16368C6.39255 6.66186 8.40141 4.65459 10.9088 4.65459C13.4016 4.65459 15.3957 6.63277 15.3957 9.1055C15.3957 11.5782 13.4162 13.5564 10.9235 13.571Z" fill="#22eaaa"/>
<path d="M17.2439 24.3488C15.8216 24.887 14.2673 25.1633 12.7276 25.3524C12.9622 25.5997 13.0649 25.7306 13.2115 25.8761C15.2937 27.9561 17.4052 30.0361 19.4874 32.1306C20.2059 32.8433 20.3525 33.7306 19.9566 34.5597C19.5313 35.4615 18.5636 36.0579 17.6251 35.9997C17.0386 35.9561 16.5694 35.6652 16.1588 35.2579C14.5899 33.687 12.9769 32.1306 11.4226 30.5306C10.9827 30.0652 10.7628 30.1524 10.3522 30.5597C8.76858 32.1743 7.15563 33.7743 5.52802 35.3597C4.79486 36.0724 3.92973 36.2034 3.09393 35.7961C2.18481 35.3597 1.62761 34.4579 1.6716 33.5415C1.70093 32.9306 2.00885 32.4506 2.43409 32.0288C4.51626 29.9633 6.58376 27.8979 8.65127 25.847C8.78324 25.7161 8.91521 25.5706 9.10583 25.3524C6.2905 25.0615 3.75377 24.3779 1.58362 22.6906C1.31969 22.487 1.04109 22.2833 0.791811 22.0506C0.263937 21.5415 0 21.0033 0 20.4361C0 19.9852 0.161295 19.5197 0.498548 19.0397C1.14373 18.1233 2.2288 17.8761 3.3432 18.4142C3.56315 18.5161 3.76844 18.647 3.95906 18.7779C8.00609 21.5415 13.5634 21.6142 17.6398 18.9088C18.0357 18.6033 18.4756 18.3415 18.9741 18.2252C19.9419 17.9779 20.851 18.327 21.3642 19.1706C21.9508 20.1306 21.9508 21.0615 21.2176 21.8179C20.1032 22.9379 18.7542 23.767 17.2439 24.3488Z" fill="#22eaaa"/>
</g>
<defs>
<clipPath id="clip0_0_554">
<rect width="21.7895" height="36" fill="white"/>
</clipPath>
</defs>
</svg>
