<svg width="38" height="37" viewBox="0 0 38 37" fill="none" xmlns="http://www.w3.org/2000/svg">
<path d="M19.0184 36.0294C28.9595 36.0213 37.0119 27.9559 37.0038 18.0148C36.9958 8.07367 28.9304 0.0213225 18.9893 0.0293714C9.04813 0.0374204 0.995783 8.10282 1.00383 18.0439C1.01188 27.9851 9.07728 36.0374 19.0184 36.0294Z" fill="#22eaaa"/>
<path d="M7.32162 18.9464C9.46905 17.788 11.8664 16.8207 14.1063 15.8485C17.9599 14.2561 21.8289 12.6912 25.737 11.234C26.4974 10.9857 27.8638 10.7423 27.9987 11.8439C27.9266 13.4035 27.626 14.9542 27.4202 16.5047C26.8975 19.9146 26.2928 23.3129 25.7032 26.7116C25.5001 27.8437 24.0499 28.4308 23.121 27.7072C20.8891 26.2362 18.64 24.7795 16.4365 23.2743C15.7145 22.5584 16.3827 21.5289 17.0265 21.0167C18.8624 19.2454 20.8097 17.7401 22.5495 15.8774C23.0183 14.7683 21.6312 15.7038 21.1737 15.9905C18.6597 17.6868 16.2074 19.4865 13.5567 20.9776C12.2027 21.7076 10.6234 21.086 9.26911 20.6804C8.05472 20.1901 6.27534 19.6965 7.3215 18.9466L7.32162 18.9464Z" fill="white"/>
</svg>
