<svg width="36" height="36" viewBox="0 0 36 36" fill="none" xmlns="http://www.w3.org/2000/svg">
<path d="M35.9482 8.79824C35.9482 8.81887 35.9482 8.8395 35.9482 8.84981C35.9275 8.89107 35.9172 8.93233 35.8966 8.97359C35.7831 9.30368 35.6697 9.63376 35.5562 9.96385C35.1642 11.0263 34.7413 12.0785 34.2359 13.0997C33.8748 13.8217 33.4416 14.5025 32.8846 15.1008C32.5339 15.4825 32.1935 15.8745 31.8634 16.2664C31.492 16.71 31.131 17.1638 30.8318 17.659C30.6255 17.9994 30.4502 18.3604 30.3367 18.7524C30.182 19.2681 30.2336 19.7633 30.5224 20.2275C30.6152 20.3719 30.7081 20.5163 30.8112 20.6504C31.0691 20.9908 31.3785 21.2899 31.6983 21.5787C31.9871 21.8469 32.2863 22.1048 32.5854 22.3627C33.1218 22.8166 33.6066 23.3117 34.1121 23.7965C34.4628 24.1266 34.7929 24.4773 35.092 24.8487C35.3293 25.1478 35.5356 25.4573 35.68 25.808C35.7934 26.0968 35.8553 26.3959 35.8347 26.7054C35.8244 26.8601 35.7934 27.0045 35.7419 27.1386C35.6181 27.4481 35.3808 27.6338 35.0714 27.7472C34.8341 27.8401 34.5763 27.8813 34.3287 27.8916C34.0192 27.902 33.7098 27.9123 33.4003 27.9123C32.9877 27.9123 32.5854 27.8813 32.1728 27.8813C31.6674 27.8813 31.1619 27.902 30.6565 27.9226C30.6255 27.9226 30.5946 27.9329 30.5637 27.9329C30.1614 27.9329 29.7591 27.9329 29.3465 27.9329C29.3155 27.9226 29.2743 27.9226 29.2433 27.9123C29.0061 27.8916 28.7585 27.871 28.5212 27.8401C27.8404 27.7369 27.2318 27.479 26.6748 27.0767C26.3035 26.8085 25.994 26.4785 25.6949 26.1277C25.2513 25.5914 24.8078 25.055 24.3642 24.5289C24.2714 24.4154 24.1786 24.3123 24.0754 24.2091C23.8691 23.9822 23.6422 23.7862 23.374 23.6315C23.0851 23.4664 22.7757 23.4045 22.4456 23.4561C22.1361 23.5077 21.8783 23.6521 21.6926 23.91C21.5894 24.0544 21.5172 24.2194 21.4553 24.3845C21.3522 24.6836 21.3006 24.9931 21.2594 25.2922C21.1975 25.7048 21.1562 26.1277 21.0943 26.5404C21.053 26.8601 20.9808 27.1696 20.8777 27.4687C20.8571 27.5306 20.8261 27.5616 20.7642 27.5616C20.1453 27.6544 19.5161 27.7266 18.8869 27.7575C18.1545 27.7988 17.4324 27.7885 16.7 27.7266C16.174 27.6853 15.6479 27.6131 15.1321 27.4997C13.9459 27.2624 12.8215 26.8498 11.7591 26.2618C10.6553 25.6532 9.6754 24.8796 8.78829 24.0028C8.00434 23.2292 7.31322 22.3833 6.66336 21.4962C5.9413 20.506 5.29144 19.4745 4.6519 18.4223C4.03299 17.4114 3.45534 16.3799 2.93958 15.3174C2.27941 13.9558 1.6605 12.5736 1.07253 11.181C0.742448 10.3971 0.412362 9.5925 0.0822764 8.78792C0.061646 8.75697 0.0513308 8.72603 0.0410156 8.68477C2.30004 8.67445 4.54875 8.66414 6.79746 8.66414C6.82841 8.71571 6.84904 8.75697 6.86967 8.78792C7.66394 10.2217 8.45821 11.6659 9.25248 13.0997C9.63414 13.7908 10.0364 14.451 10.5006 15.0905C10.841 15.565 11.1814 16.0395 11.5218 16.5037C11.6559 16.6894 11.79 16.8647 11.9344 17.0401C12.0685 17.1948 12.2129 17.3495 12.3677 17.4733C12.4914 17.5765 12.6359 17.659 12.7906 17.7106C13.0794 17.8034 13.3373 17.7415 13.5436 17.5146C13.6467 17.4011 13.719 17.2773 13.7912 17.1432C13.9046 16.9163 13.9871 16.679 14.049 16.4418C14.2347 15.7404 14.3172 15.0183 14.3379 14.2859C14.3482 13.8836 14.3379 13.4813 14.3275 13.079C14.3172 12.6458 14.2553 12.2022 14.1728 11.7793C14.1109 11.4699 14.0387 11.1707 13.9149 10.8819C13.8015 10.6137 13.6261 10.3868 13.3889 10.2114C13.2135 10.0773 13.0175 9.97417 12.8112 9.90196C12.5637 9.80912 12.3058 9.7266 12.0582 9.64408C12.0376 9.63376 12.0066 9.62345 11.986 9.61313C12.0273 9.41715 12.1304 9.27273 12.2645 9.14895C12.4192 9.01485 12.5843 8.9117 12.77 8.81887C13.0794 8.66414 13.3992 8.56099 13.7396 8.46815C14.6783 8.22058 15.6376 8.11743 16.5969 8.08649C17.1126 8.06586 17.6181 8.07617 18.1339 8.11743C18.5877 8.14838 19.0416 8.21027 19.4851 8.30311C19.7843 8.37531 20.0834 8.45783 20.3619 8.60225C20.5476 8.69508 20.7023 8.81887 20.8261 8.98391C21.0221 9.24179 21.1356 9.53061 21.2181 9.84007C21.3109 10.2424 21.3316 10.655 21.3316 11.0573C21.3212 11.6452 21.249 12.2229 21.1871 12.8005C21.1253 13.3369 21.0634 13.8733 21.0015 14.4097C20.9499 14.9255 20.9293 15.4309 20.9808 15.9467C21.0118 16.2664 21.0737 16.5759 21.1975 16.875C21.3419 17.2154 21.5482 17.4939 21.8473 17.7106C21.8989 17.7518 21.9298 17.7518 21.9917 17.7209C22.1568 17.6177 22.3218 17.5146 22.4869 17.4011C22.9717 17.0607 23.3843 16.6481 23.7763 16.2045C24.3849 15.5237 24.9109 14.7914 25.3854 14.0177C26.4169 12.3879 27.2628 10.655 27.9952 8.88076C28.0055 8.84981 28.0261 8.81887 28.0364 8.7776C28.1602 8.7776 28.284 8.7776 28.4078 8.7776C29.2227 8.7776 30.0376 8.78792 30.8628 8.79824C31.8118 8.80855 32.7608 8.80855 33.7098 8.81887C34.4009 8.81887 35.1023 8.82918 35.7934 8.82918C35.845 8.80855 35.8966 8.80855 35.9482 8.79824Z" fill="#22eaaa"/>
</svg>
