<svg width="36" height="36" viewBox="0 0 36 36" fill="none" xmlns="http://www.w3.org/2000/svg">
<g clip-path="url(#clip0_0_1)">
<path d="M34.3027 9.75565C33.9109 8.28954 32.7621 7.13138 31.3078 6.7364C28.6449 6 18 6 18 6C18 6 7.35508 6 4.69883 6.70293C3.27109 7.09791 2.0957 8.28285 1.70391 9.74895C1 12.4402 1 17.9967 1 17.9967C1 17.9967 1 23.5866 1.69727 26.2377C2.08906 27.7038 3.23789 28.8619 4.69219 29.2569C7.38164 29.9933 17.9934 29.9933 17.9934 29.9933C17.9934 29.9933 28.6383 29.9933 31.2945 29.2904C32.7488 28.8954 33.8977 27.7372 34.2895 26.2711C35 23.5866 35 18.0301 35 18.0301C35 18.0301 35.0266 12.4402 34.3027 9.75565Z" fill="#22eaaa"/>
<path d="M14.6133 23.1385L23.4652 17.997L14.6133 12.8623V23.1385Z" fill="white"/>
</g>
<defs>
<clipPath id="clip0_0_1">
<rect width="34" height="24" fill="white" transform="translate(1 6)"/>
</clipPath>
</defs>
</svg>
